<?xml version="1.0"?>
<svg width="1000" height="999" xmlns="http://www.w3.org/2000/svg" xmlns:svg="http://www.w3.org/2000/svg" version="1.1">
 <g class="layer">
  <title>Layer 1</title>
  <g id="svg_5" transform="matrix(1 0 0 1 -0.215743 -0.215528)">
   <svg data-background-color="#ffffff" height="999" id="svg_41" preserveAspectRatio="xMidYMid meet" viewBox="0 0 343 343" width="1000" xmlns="http://www.w3.org/2000/svg" xmlns:xlink="http://www.w3.org/1999/xlink">
    <g id="svg_1" transform="matrix(1,0,0,1,0.0740000000000407,0.07400000000001228)">
     <g id="svg_9">
      <svg height="342.85" id="svg_42" viewBox="0 0 342.85155851775386 342.85155851775386" width="342.85">
       <g id="svg_10">
        <svg id="svg_43"/>
       </g>
       <g id="svg_14">
        <svg height="342.85" id="svg_44" viewBox="0 0 342.85155851775386 342.85155851775386" width="342.85">
         <g id="svg_45">
          <path d="m0,171.43c0,-94.68 76.75,-171.43 171.43,-171.43c94.67,0 171.42,76.75 171.42,171.43c0,94.67 -76.75,171.42 -171.42,171.42c-94.68,0 -171.43,-76.75 -171.43,-171.42zm171.43,166.02c91.69,0 166.02,-74.33 166.02,-166.02c0,-91.7 -74.33,-166.03 -166.02,-166.03c-91.7,0 -166.03,74.33 -166.03,166.03c0,91.69 74.33,166.02 166.03,166.02z" data-fill-palette-color="tertiary" fill="#2b6fa5" id="svg_46" stroke="transparent"/>
          <ellipse cx="171.43" cy="171.43" data-fill-palette-color="tertiary" fill="#2b6fa5" id="svg_47" rx="164.57" ry="164.57" stroke="transparent" stroke-width="0"/>
         </g>
         <g id="svg_18" transform="matrix(1,0,0,1,64.84655864529837,113.69326293992049)">
          <svg height="115.47" id="svg_48" viewBox="0 0 213.1584412271571 115.46503263791288" width="213.16">
           <g id="svg_22">
            <svg height="115.47" id="svg_49" viewBox="0 0 213.1584412271571 115.46503263791288" width="213.16">
             <g id="svg_26">
              <svg height="115.47" id="svg_50" viewBox="0 0 213.1584412271571 115.46503263791288" width="213.16">
               <g id="svg_29" transform="matrix(1,0,0,1,0,55.547814719204496)">
                <svg height="59.92" id="svg_51" viewBox="0 0 213.1584412271571 59.91721791870838" width="213.16">
                 <g id="svg_32">
                  <svg height="59.92" id="svg_30" viewBox="0 0 213.1584412271571 59.91721791870838" width="213.16">
                   <g id="svg_34">
                    <svg height="59.92" id="svg_52" viewBox="0 0 213.1584412271571 59.91721791870838" width="213.16">
                     <g id="svg_36" transform="matrix(1,0,0,1,0,0)">
                      <svg data-palette-color="#ffffff" height="59.92" id="svg_53" viewBox="1.75 -33.650962829589844 132.69000244140625 37.30096435546875" width="213.16">
                       <path class="undefined-text-0" d="m15.25,-17.25q0.15,-2.05 0.3,-3.78q0.15,-1.72 0.3,-3.12l0,0l0.4,-4q-3.9,0.6 -8.3,2.3l0,0q-1.05,0.4 -1.95,0.4l0,0q-1.35,0 -2.47,-0.75q-1.13,-0.75 -1.78,-2.2l0,0q0.3,-1.1 1.13,-1.65q0.82,-0.55 2.27,-1.1l0,0q6.95,-2.55 15.9,-2.5l0,0q4.25,0 8.88,0.35q4.62,0.35 5.42,0.4l0,0l3.5,0.25q0.2,0 0.68,0q0.47,0 0.77,0.22q0.3,0.23 0.3,0.73l0,0q0,1.25 -1.8,1.45l0,0q-4.5,0.5 -6.4,0.7l0,0q-1.95,0.1 -2.95,0.2l0,0q-3.9,0.25 -5.85,0.4l0,0q-1.2,0.1 -1.65,0.27q-0.45,0.18 -0.57,0.6q-0.13,0.43 -0.23,1.78l0,0q-0.25,3.15 -1.05,10.85l0,0q-0.8,6.95 -1,9.6l0,0q-0.05,1.45 -0.65,3.5l0,0q-0.4,1.3 -0.65,1.72q-0.25,0.43 -0.73,0.53q-0.47,0.1 -1.77,0.05l0,0q-0.95,0 -1.47,-0.43q-0.53,-0.42 -0.53,-1.17l0,0q0,-0.15 0.1,-0.65l0,0q1.1,-4.35 1.85,-14.95l0,0zm30.95,-9.45q0.05,4.85 0.27,7.97q0.23,3.13 1.08,6.63l0,0q2.1,-0.75 3.85,-0.75l0,0q2.95,0 5.1,1.75q2.15,1.75 2.9,4.35l0,0q0.6,1.9 0.6,5.1l0,0l-0.05,3.9q0,0.35 -0.4,0.8q-0.4,0.45 -0.8,0.55l0,0q-0.15,0.05 -0.45,0.05l0,0q-1.15,0 -2.4,-1.12q-1.25,-1.13 -1.3,-2.23l0,0l-0.1,-2.6q0,-0.9 -0.1,-2.6l0,0q-0.1,-1.75 -0.4,-2.5l0,0q-0.3,-0.85 -0.75,-1.3q-0.45,-0.45 -1,-0.45l0,0q-0.4,0 -0.88,0.35q-0.47,0.35 -0.82,0.95l0,0q-1.05,1.65 -2.75,6.5l0,0q-0.55,1.75 -1.95,1.75l0,0q-0.15,0 -0.65,-0.1l0,0q-0.3,-0.1 -1.15,-0.33q-0.85,-0.22 -1.33,-0.72q-0.47,-0.5 -0.47,-1.45l0,0q0,-9.45 -1.15,-15.65l0,0q-0.55,-3.1 -0.55,-7.15l0,0l0,-3.35l0,-1.75q0,-0.7 0.75,-1.2q0.75,-0.5 1.7,-0.5l0,0q0.8,0 1.35,0.35l0,0q1,0.6 1.42,1.5q0.43,0.9 0.43,2.25l0,0l0,1zm34,24.15q-0.45,-0.2 -0.9,-0.2l0,0q-0.45,0 -0.78,0.22q-0.32,0.23 -0.72,0.68l0,0q-0.6,0.6 -1.25,1l0,0q-0.6,0.35 -2.2,0.65l0,0q-0.7,0.1 -1.15,0.1l0,0q-2.1,0 -4.38,-0.93q-2.27,-0.92 -3.22,-2.22l0,0q-1,-1.4 -0.95,-3l0,0q0.05,-2.4 2,-4.8l0,0q1.9,-2.3 3.47,-3.25q1.58,-0.95 4.33,-1.2l0,0q0.6,0 1.72,-0.2q1.13,-0.2 1.13,-0.55l0,0q0,-0.7 -0.63,-1.28q-0.62,-0.57 -2.52,-0.57l0,0q-0.7,0 -2.1,0.1l0,0q-1.4,0.1 -1.95,0.1l0,0q-1.7,0 -2.45,-0.55l0,0q-0.2,-0.1 -0.2,-0.95l0,0q0,-1.5 1.05,-1.9l0,0q2.15,-0.8 4.45,-0.85l0,0q2.9,0 5.37,1.27q2.48,1.28 3.63,3.18l0,0q1.15,1.9 1.5,5.25l0,0q0.4,3.75 0.4,9.55l0,0q0,1.6 -0.45,1.85l0,0q-0.4,0.25 -0.75,0.25l0,0q-0.45,0 -0.83,-0.27q-0.37,-0.28 -0.82,-0.78l0,0q-0.45,-0.55 -0.8,-0.7l0,0zm-7.9,-0.6q2.35,-0.7 4.6,-2.25l0,0q0.5,-0.35 0.9,-0.9q0.4,-0.55 0.5,-0.7l0,0q0.1,-0.15 0.17,-0.88q0.08,-0.72 0.03,-1.17l0,0q-0.05,-0.15 -0.18,-0.8q-0.12,-0.65 -0.37,-1.15l0,0q-0.25,-0.4 -0.8,-0.75q-0.55,-0.35 -1,-0.3l0,0q-0.95,0.05 -2.05,0.7q-1.1,0.65 -2.05,1.75l0,0q-0.95,1.15 -1.48,2.32q-0.52,1.18 -0.52,2.18l0,0q0.1,1.35 0.75,1.8l0,0q0.35,0.25 0.85,0.25l0,0q0.4,0 0.65,-0.1l0,0zm24.84,-15.7q0,0.3 -0.1,0.78q-0.1,0.47 -0.05,0.62l0,0q3.45,-0.75 5.85,-0.75l0,0q3.75,0 5.65,3.6l0,0q1.55,3.05 1.55,6.75l0,0q0,0.95 -0.2,2.75l0,0q-0.15,1.2 -0.95,1.92q-0.8,0.73 -1.9,0.73l0,0q-1.15,0 -1.62,-0.43q-0.48,-0.42 -0.55,-0.97q-0.08,-0.55 -0.08,-1.75l0,0l-0.05,-1.05q-0.1,-3 -0.4,-5.2l0,0q-0.15,-0.9 -0.67,-1.28q-0.53,-0.37 -1.38,-0.37l0,0q-0.8,0 -1.9,0.25l0,0q-1.7,0.45 -2.27,0.7q-0.58,0.25 -1.68,1.05l0,0q-0.35,0.25 -0.5,1q-0.15,0.75 -0.15,0.85l0,0q-0.65,3.2 -1.4,7.65l0,0q-0.05,0.2 -0.2,0.95q-0.15,0.75 -0.57,1.08q-0.43,0.32 -1.23,0.22l0,0q-3.15,-0.4 -3.2,-2.65l0,0q-0.05,-2.9 0.45,-6.85l0,0q0.35,-2.85 0.65,-4.6l0,0q0.1,-0.8 0.28,-1.95q0.17,-1.15 0.32,-2.65l0,0q0.15,-1.15 0.3,-1.7q0.15,-0.55 0.7,-0.93q0.55,-0.37 1.7,-0.37l0,0q1.45,0 2.4,0.65q0.95,0.65 1.2,1.85l0,0l0,0.1zm23.5,-7.85q0.05,4.85 0.28,7.97q0.22,3.13 1.07,6.63l0,0q2.1,-0.75 3.85,-0.75l0,0q2.95,0 5.1,1.75q2.15,1.75 2.9,4.35l0,0q0.6,1.9 0.6,5.1l0,0l-0.05,3.9q0,0.35 -0.4,0.8q-0.4,0.45 -0.8,0.55l0,0q-0.15,0.05 -0.45,0.05l0,0q-1.15,0 -2.4,-1.12q-1.25,-1.13 -1.3,-2.23l0,0l-0.1,-2.6q0,-0.9 -0.1,-2.6l0,0q-0.1,-1.75 -0.4,-2.5l0,0q-0.3,-0.85 -0.75,-1.3q-0.45,-0.45 -1,-0.45l0,0q-0.4,0 -0.87,0.35q-0.48,0.35 -0.83,0.95l0,0q-1.05,1.65 -2.75,6.5l0,0q-0.55,1.75 -1.95,1.75l0,0q-0.15,0 -0.65,-0.1l0,0q-0.3,-0.1 -1.15,-0.33q-0.85,-0.22 -1.32,-0.72q-0.48,-0.5 -0.48,-1.45l0,0q0,-9.45 -1.15,-15.65l0,0q-0.55,-3.1 -0.55,-7.15l0,0l0,-3.35l0,-1.75q0,-0.7 0.75,-1.2q0.75,-0.5 1.7,-0.5l0,0q0.8,0 1.35,0.35l0,0q1,0.6 1.43,1.5q0.42,0.9 0.42,2.25l0,0l0,1z" data-fill-palette-color="quaternary" fill="#ffffff" id="svg_35" transform="matrix(1,0,0,1,0,0)"/>
                      </svg>
                     </g>
                    </svg>
                   </g>
                  </svg>
                 </g>
                </svg>
               </g>
               <g id="svg_38" transform="matrix(1,0,0,1,74.7549057332361,0)">
                <svg height="41.4" id="svg_54" viewBox="0 0 63.648629760684905 41.40279758182749" width="63.65">
                 <g id="svg_40">
                  <svg class="icon-icon-0" data-fill-palette-color="quaternary" enable-background="new 0 107.3 100 100" height="41.4" id="svg_39" version="1.1" viewBox="5.900000095367432 129.5 89.62474822998047 58.30000305175781" width="63.65" x="0" xml:space="preserve" xmlns="http://www.w3.org/2000/svg" xmlns:xlink="http://www.w3.org/1999/xlink" y="0">
                   <path d="m71.8,174.8c0,-3 -2.3,-4.4 -5.2,-4.4l-16.7,0l-6.7,-18.4l0,0c-1,-3.2 -4,-5.6 -7.6,-5.6c-1.3,0 -2.5,0.3 -3.6,0.9l0,0c-14.5,7.2 -22.9,20.7 -26.1,40.4l19,0c0.5,-8.3 2,-18 8.8,-23.8l7.8,11.7l0,0c0.9,1.7 2.7,3 4.7,3l20.3,0c3.1,-0.1 5.3,-0.9 5.3,-3.8z" data-fill-palette-color="quaternary" fill="#ffffff" id="svg_55"/>
                   <path d="m84.7,187.8l-17.2,0c-1.9,0 -3.5,-1.6 -3.5,-3.5s1.6,-3.5 3.5,-3.5l14.7,0l6.5,-18.5c0.6,-1.8 2.6,-2.8 4.5,-2.1c1.8,0.6 2.8,2.6 2.1,4.5l-7.3,20.8c-0.5,1.4 -1.8,2.3 -3.3,2.3z" data-fill-palette-color="quaternary" fill="#ffffff" id="svg_56"/>
                   <path d="m51.7,129.5c-2.5,0 -4.8,0.9 -6.5,2.4c-0.9,-1.5 -2.5,-2.4 -4.4,-2.4c-2.9,0 -5.2,2.3 -5.2,5.2s2.3,5.2 5.2,5.2c0.3,0 0.6,0 0.9,-0.1c0.2,5.4 4.6,9.6 10,9.6c5.5,0 10,-4.5 10,-10s-4.5,-9.9 -10,-9.9z" data-fill-palette-color="quaternary" fill="#ffffff" id="svg_57"/>
                  </svg>
                 </g>
                </svg>
               </g>
               <g id="svg_58"/>
              </svg>
             </g>
            </svg>
           </g>
          </svg>
         </g>
        </svg>
       </g>

      </svg>
     </g>
     <rect fill="none" height="342.85" id="svg_59" width="342.85"/>
    </g>
   </svg>
   <ellipse cx="471.4" cy="339.2" fill="#2b6fa5" id="svg_61" rx="18" ry="18" transform="matrix(1 0 0 1 0 0)"/>
   <ellipse cx="502" cy="351" fill="#ffffff" id="svg_63" rx="21" ry="21" transform="matrix(1 0 0 1 0 0)"/>
   <text fill="#ffffff" font-family="Cursive" font-size="24" id="svg_64" stroke-width="0" text-anchor="middle" transform="matrix(1 0 0 1 0 0) matrix(-13.2256 2.64982 -1.14853 -5.46816 8506.19 1823.46)" x="561.54" xml:space="preserve" y="526.62">`</text>
  </g>
 </g>
</svg>